<?xml version="1.0" standalone="no"?>
<!DOCTYPE svg PUBLIC "-//W3C//DTD SVG 20010904//EN"
 "http://www.w3.org/TR/2001/REC-SVG-20010904/DTD/svg10.dtd">
<svg version="1.0" xmlns="http://www.w3.org/2000/svg"
 width="2000.000000pt" height="2000.000000pt" viewBox="0 0 2000.000000 2000.000000"
 preserveAspectRatio="xMidYMid meet">
<metadata>
Created by potrace 1.11, written by Peter Selinger 2001-2013
</metadata>
<g transform="translate(0.000000,2000.000000) scale(0.100000,-0.100000)"
fill="#000000" stroke="none">
<path d="M9568 19995 c-1 -1 -59 -6 -128 -9 -68 -4 -145 -9 -170 -11 -41 -4
-161 -14 -235 -20 -101 -9 -210 -21 -275 -30 -19 -3 -57 -7 -85 -11 -27 -3
-57 -7 -65 -9 -8 -2 -40 -7 -70 -10 -30 -4 -120 -18 -200 -32 -80 -13 -154
-26 -165 -28 -27 -4 -164 -31 -255 -51 -41 -8 -86 -18 -100 -20 -62 -12 -370
-89 -515 -130 -839 -235 -1687 -598 -2409 -1031 -49 -29 -92 -53 -97 -53 -5 0
-9 -4 -9 -8 0 -5 -12 -14 -27 -21 -14 -7 -49 -27 -77 -45 -88 -57 -369 -244
-416 -277 -58 -41 -251 -180 -270 -196 -8 -7 -69 -54 -135 -104 -105 -81 -381
-307 -426 -349 -8 -8 -51 -46 -95 -85 -246 -217 -583 -556 -855 -860 -67 -75
-280 -330 -342 -410 -252 -324 -440 -591 -629 -895 -64 -102 -125 -201 -136
-220 -135 -236 -179 -315 -245 -440 -72 -137 -81 -155 -82 -160 -1 -3 -34 -72
-74 -155 -41 -82 -100 -211 -132 -285 -33 -74 -64 -144 -69 -155 -32 -69 -177
-443 -185 -475 -2 -8 -20 -60 -40 -115 -21 -55 -38 -104 -40 -110 -1 -5 -5
-17 -8 -25 -47 -116 -252 -861 -272 -985 -1 -11 -7 -40 -13 -65 -6 -25 -14
-61 -17 -80 -3 -19 -8 -42 -10 -50 -3 -8 -11 -53 -20 -100 -14 -81 -18 -104
-30 -160 -3 -14 -7 -43 -10 -65 -4 -22 -10 -65 -15 -95 -5 -30 -12 -75 -15
-100 -3 -25 -8 -56 -10 -70 -4 -25 -12 -84 -20 -150 -7 -52 -13 -108 -20 -175
-3 -33 -8 -76 -10 -95 -3 -19 -7 -71 -10 -115 -4 -44 -8 -100 -10 -125 -27
-316 -28 -1150 -1 -1455 7 -75 17 -193 22 -255 2 -30 6 -71 9 -90 2 -19 7 -62
11 -95 3 -33 8 -67 9 -75 2 -8 6 -44 10 -80 4 -36 8 -67 10 -70 2 -3 6 -37 10
-75 4 -39 9 -73 11 -76 2 -3 6 -24 9 -45 2 -21 12 -79 20 -129 9 -49 18 -106
21 -125 3 -19 10 -53 16 -75 5 -22 12 -51 13 -65 2 -14 13 -68 25 -120 11 -52
23 -106 26 -120 2 -14 7 -33 10 -42 3 -10 7 -29 10 -43 8 -46 84 -336 126
-480 68 -237 216 -678 279 -830 7 -16 13 -32 14 -35 8 -23 119 -290 141 -338
13 -29 24 -55 24 -58 0 -14 263 -550 338 -689 64 -119 178 -321 206 -365 13
-19 71 -114 131 -210 314 -507 673 -977 1130 -1480 74 -81 459 -466 541 -541
39 -35 93 -85 120 -110 66 -61 379 -327 429 -364 22 -16 42 -32 45 -35 11 -12
183 -143 325 -247 270 -198 538 -373 835 -548 103 -60 155 -90 295 -167 160
-88 604 -303 800 -386 716 -306 1469 -533 2181 -656 93 -17 275 -46 314 -51
25 -3 56 -8 70 -10 36 -6 86 -13 155 -21 33 -3 67 -8 75 -9 8 -2 51 -6 95 -10
44 -4 90 -8 101 -10 12 -2 59 -6 105 -10 46 -4 102 -8 124 -10 144 -13 394
-20 750 -20 352 0 509 4 710 20 22 1 81 6 130 9 50 4 101 9 115 11 14 2 52 6
85 9 66 6 132 13 185 21 19 3 58 7 85 11 28 3 75 9 105 14 30 5 73 12 95 15
40 5 72 10 130 20 47 8 197 34 225 40 14 3 48 9 75 15 28 5 59 11 70 14 79 18
173 38 190 40 16 3 145 34 255 61 225 57 468 129 710 212 118 40 222 75 230
77 78 22 503 196 725 296 255 116 747 371 892 463 24 15 45 27 47 27 2 0 42
23 88 51 320 197 582 374 837 567 85 65 166 126 180 137 117 88 445 368 631
540 114 105 419 411 522 523 59 64 118 128 130 142 87 95 359 420 414 495 16
22 31 42 35 45 3 3 25 32 50 65 24 33 46 62 49 65 7 7 143 195 209 290 150
215 408 626 511 815 18 33 55 101 82 150 105 190 428 870 428 900 0 3 9 25 19
48 35 78 212 549 225 602 2 6 6 17 9 25 35 86 174 573 226 795 17 72 36 148
42 170 5 22 11 49 13 60 2 11 18 90 35 175 16 85 33 171 36 190 3 19 13 73 21
120 8 47 17 104 20 126 3 23 6 50 8 60 5 24 14 87 21 139 3 22 7 56 10 75 10
79 30 273 40 405 4 44 8 91 10 104 19 118 28 1068 12 1296 -4 61 -10 142 -12
180 -3 39 -7 94 -10 123 -3 28 -7 78 -10 110 -5 54 -8 83 -20 192 -7 68 -17
143 -21 165 -2 11 -6 43 -9 70 -3 28 -8 57 -10 65 -2 8 -7 39 -10 69 -4 30 -9
63 -11 75 -5 23 -6 33 -29 161 -41 242 -69 370 -147 685 -85 348 -269 925
-375 1180 -3 8 -7 17 -8 20 -6 17 -116 283 -137 330 -159 362 -402 841 -549
1079 -15 25 -45 75 -65 111 -21 36 -40 67 -44 70 -3 3 -19 28 -35 55 -132 229
-516 765 -735 1029 -89 107 -257 304 -270 316 -8 8 -51 56 -95 105 -84 95
-498 512 -601 605 -122 111 -211 190 -294 260 -47 40 -96 82 -110 94 -282 239
-707 545 -1111 798 -227 143 -730 423 -857 478 -13 5 -71 33 -130 61 -342 164
-717 315 -1122 450 -236 78 -651 199 -680 198 -3 0 -18 4 -33 10 -15 6 -42 13
-58 16 -17 3 -86 19 -152 35 -131 31 -300 66 -363 75 -22 4 -47 8 -56 11 -18
5 -32 8 -98 18 -19 3 -44 7 -55 10 -11 2 -45 7 -75 11 -30 5 -62 9 -70 11 -14
2 -145 21 -200 29 -83 12 -121 16 -250 30 -119 12 -312 29 -480 41 -68 5
-1017 14 -1022 9z"/>
</g>
</svg>
