<svg id="Capa_1" data-name="Capa 1" xmlns="http://www.w3.org/2000/svg" viewBox="0 0 512 512"><defs><style>.cls-1{fill:#faebd7;}.cls-2{fill:#ff5f6d;}.cls-3{fill:#81cf71;}.cls-4{fill:#ffc371;}</style></defs><title>logo</title><circle class="cls-1" cx="256" cy="256" r="256"/><polygon class="cls-2" points="429.02 223.65 354.46 278.2 354.46 165.04 429.02 223.65"/><path class="cls-3" d="M354.46,278.2l-51.23,37.48L256,350.25l-47.23-34.57L157.54,278.2v-153H354.46Z"/><polygon class="cls-2" points="306.64 125.18 205.36 125.18 256 82.98 306.64 125.18"/><path class="cls-4" d="M256,350.25,83,223.65V415A14.07,14.07,0,0,0,97.05,429H415A14.08,14.08,0,0,0,429,415V223.65Z"/><polygon class="cls-2" points="157.53 165.04 157.53 278.2 82.98 223.65 157.53 165.04"/><path d="M312.27,393.85a7,7,0,1,0,7,7A7,7,0,0,0,312.27,393.85Z"/><path d="M433.42,218.17l-.06,0-71.86-56.5V125.18a7,7,0,0,0-7-7H309.19L260.5,77.58a7,7,0,0,0-9,0l-48.69,40.57H157.54a7,7,0,0,0-7,7v36.44l-71.86,56.5-.06,0A7.09,7.09,0,0,0,76,223.65V415a21.19,21.19,0,0,0,6.64,15.36l.1.09a.46.46,0,0,0,.07.07,21,21,0,0,0,14.29,5.58H415a21.11,21.11,0,0,0,21.1-21.1V223.65A7.06,7.06,0,0,0,433.42,218.17ZM422,413.38l-107.77-97L422,237.51ZM90,237.51l107.77,78.86L90,413.38Zm119.37,87.34,42.46,31.07a7,7,0,0,0,8.3,0l42.46-31.07L410.52,422h-309Zm208-101.4L361.5,264.34V179.51ZM256,92.14l31.21,26H224.79Zm91.43,40.08V274.63L256,341.53l-91.43-66.9V132.22ZM150.5,179.51v84.83L94.62,223.45Z"/><path d="M284.13,393.85h-84.4a7,7,0,0,0,0,14.07h84.4a7,7,0,1,0,0-14.07Z"/><path d="M256,244.25c-3,0-6.25-1.89-9.13-5.32a7,7,0,1,0-10.77,9A29.15,29.15,0,0,0,249,257.14v8.21a7,7,0,1,0,14.06,0V257.1a21.1,21.1,0,0,0-7-41,7,7,0,0,1,0-14.06c2.49,0,5.12,1.27,7.61,3.67a7,7,0,1,0,9.78-10.1A27.14,27.14,0,0,0,263,189.14V181A7,7,0,1,0,249,181v8.24a21.1,21.1,0,0,0,7,41,7,7,0,0,1,0,14.07Z"/></svg>